STARTFONT 2.1
FONT -Monotype-Courier-Bold-I-Normal--24-240-75-75-M-136-iso8859-5
SIZE 24 75 75
FONTBOUNDINGBOX 20 26 -1 -6

STARTPROPERTIES 24
FOUNDRY "Monotype"
FAMILY_NAME "Courier"
WEIGHT_NAME "Bold"
SLANT "I"
SETWIDTH_NAME "Normal"
ADD_STYLE_NAME ""
PIXEL_SIZE 24
POINT_SIZE 240
RESOLUTION_X 75
RESOLUTION_Y 75
SPACING "M"
AVERAGE_WIDTH 136
CHARSET_REGISTRY "iso8859"
CHARSET_ENCODING "5"
FACE_NAME "Courier Bold Inclined ISO Latin Cyrillic"
_DEC_DEVICE_FONTNAMES "PS=courier-bin-latcyrillic"
COPYRIGHT "Copyright (c) 1993 Monotype Typography Ltd."
CAP_HEIGHT 15
X_HEIGHT 11
WEIGHT 10
QUAD_WIDTH 15
DEFAULT_CHAR 160
FONT_DESCENT 6
FONT_ASCENT 20
ENDPROPERTIES

CHARS 191

STARTCHAR space
ENCODING 32
SWIDTH 600 0
DWIDTH 15 0
BBX 0 0 0 0
BITMAP
ENDCHAR

STARTCHAR exclam
ENCODING 33
SWIDTH 600 0
DWIDTH 15 0
BBX 6 17 6 0
BITMAP
0C
1C
3C
3C
3C
38
38
38
30
70
70
20
00
00
60
E0
C0
ENDCHAR

STARTCHAR quotedbl
ENCODING 34
SWIDTH 600 0
DWIDTH 15 0
BBX 9 7 6 8
BITMAP
F380
E300
E700
E700
C600
C600
8600
ENDCHAR

STARTCHAR numbersign
ENCODING 35
SWIDTH 600 0
DWIDTH 15 0
BBX 13 20 3 -3
BITMAP
0230
0770
0670
0E60
0E60
0CE0
3FF0
7FF8
3FF0
19C0
3980
FFE0
FFE0
BFC0
7300
7700
6700
E600
E600
4400
ENDCHAR

STARTCHAR dollar
ENCODING 36
SWIDTH 600 0
DWIDTH 15 0
BBX 13 21 2 -3
BITMAP
0080
01C0
01C0
07F8
0FF8
1C78
3830
3800
3F00
1FE0
07F0
0070
6070
E060
F1E0
FFC0
FF80
0C00
1C00
1C00
1800
ENDCHAR

STARTCHAR percent
ENCODING 37
SWIDTH 600 0
DWIDTH 15 0
BBX 12 16 4 0
BITMAP
1F00
3380
2180
6180
6300
3E10
09F0
1F00
FF00
8F80
18C0
30C0
30C0
3180
1F00
0E00
ENDCHAR

STARTCHAR ampersand
ENCODING 38
SWIDTH 600 0
DWIDTH 15 0
BBX 12 15 3 0
BITMAP
03A0
07E0
0FE0
1C40
1C00
1C00
0E00
3E60
7EF0
7760
E7C0
E380
FFE0
7FE0
3DC0
ENDCHAR

STARTCHAR quoteright
ENCODING 39
SWIDTH 600 0
DWIDTH 15 0
BBX 7 8 6 8
BITMAP
1E
1C
38
30
70
60
C0
40
ENDCHAR

STARTCHAR parenleft
ENCODING 40
SWIDTH 600 0
DWIDTH 15 0
BBX 8 20 7 -4
BITMAP
03
07
0E
1C
1C
38
38
70
70
60
E0
E0
E0
E0
E0
E0
70
70
70
20
ENDCHAR

STARTCHAR parenright
ENCODING 41
SWIDTH 600 0
DWIDTH 15 0
BBX 8 20 2 -4
BITMAP
04
0E
0E
0E
07
07
07
07
07
07
07
0E
0E
0C
1C
38
38
70
E0
40
ENDCHAR

STARTCHAR asterisk
ENCODING 42
SWIDTH 600 0
DWIDTH 15 0
BBX 11 11 4 5
BITMAP
0300
0700
0700
6660
FFE0
7FE0
0F00
1F00
3B80
7380
6100
ENDCHAR

STARTCHAR plus
ENCODING 43
SWIDTH 600 0
DWIDTH 15 0
BBX 13 15 3 0
BITMAP
0100
0380
0300
0300
0700
0700
FFF0
FFF8
F7F0
0E00
0E00
0C00
0C00
0C00
0800
ENDCHAR

STARTCHAR comma
ENCODING 44
SWIDTH 600 0
DWIDTH 15 0
BBX 7 7 4 -4
BITMAP
1E
1C
38
30
60
60
C0
ENDCHAR

STARTCHAR minus
ENCODING 45
SWIDTH 600 0
DWIDTH 15 0
BBX 13 3 3 6
BITMAP
FFF0
FFF8
FFF0
ENDCHAR

STARTCHAR period
ENCODING 46
SWIDTH 600 0
DWIDTH 15 0
BBX 4 3 6 0
BITMAP
70
F0
E0
ENDCHAR

STARTCHAR slash
ENCODING 47
SWIDTH 600 0
DWIDTH 15 0
BBX 15 21 2 -3
BITMAP
0006
000C
001C
0038
0038
0070
00E0
00E0
01C0
0380
0300
0700
0E00
0C00
1C00
3800
3000
7000
E000
C000
8000
ENDCHAR

STARTCHAR zero
ENCODING 48
SWIDTH 600 0
DWIDTH 15 0
BBX 12 17 3 0
BITMAP
0380
0FE0
1FE0
1870
3870
3070
7070
6070
6060
E060
E0E0
E0E0
E1C0
E1C0
7F80
7F00
1C00
ENDCHAR

STARTCHAR one
ENCODING 49
SWIDTH 600 0
DWIDTH 15 0
BBX 11 17 2 0
BITMAP
0040
07C0
1FC0
1FC0
0180
0180
0380
0380
0380
0300
0300
0700
0700
0600
7FE0
FFE0
7FC0
ENDCHAR

STARTCHAR two
ENCODING 50
SWIDTH 600 0
DWIDTH 15 0
BBX 14 17 1 0
BITMAP
01E0
07F8
0FFC
1C1C
1C1C
181C
0038
0078
00F0
01E0
0780
0F00
1E00
7000
FFF0
FFF0
FFE0
ENDCHAR

STARTCHAR three
ENCODING 51
SWIDTH 600 0
DWIDTH 15 0
BBX 14 17 2 0
BITMAP
01E0
07F8
0FFC
0C1C
001C
001C
0078
03E0
03F0
0070
0038
0038
0038
6070
FFE0
7FC0
1F00
ENDCHAR

STARTCHAR four
ENCODING 52
SWIDTH 600 0
DWIDTH 15 0
BBX 12 16 3 0
BITMAP
00F0
01E0
03E0
03E0
0760
0EC0
1CC0
39C0
39C0
6180
FFC0
FFE0
F380
0F80
1FC0
0F80
ENDCHAR

STARTCHAR five
ENCODING 53
SWIDTH 600 0
DWIDTH 15 0
BBX 14 16 2 0
BITMAP
0FF8
0FFC
0FF8
0C00
0C00
1DC0
1FF0
1FF8
1838
0038
0038
0030
6070
FFE0
7FC0
1E00
ENDCHAR

STARTCHAR six
ENCODING 54
SWIDTH 600 0
DWIDTH 15 0
BBX 13 17 4 0
BITMAP
00F0
03F8
0FF0
1E00
3C00
3800
6700
7FC0
7FC0
F8E0
F0E0
E0E0
E0C0
E1C0
7F80
7F00
1C00
ENDCHAR

STARTCHAR seven
ENCODING 55
SWIDTH 600 0
DWIDTH 15 0
BBX 11 16 5 0
BITMAP
FFE0
FFE0
FEE0
C1C0
01C0
0380
0300
0700
0600
0E00
1C00
1C00
3800
3800
7000
2000
ENDCHAR

STARTCHAR eight
ENCODING 56
SWIDTH 600 0
DWIDTH 15 0
BBX 13 17 2 0
BITMAP
01C0
07F0
0FF8
1C38
3838
3838
3870
3FE0
1FC0
3FE0
70F0
6070
E070
E0E0
7FE0
7F80
1E00
ENDCHAR

STARTCHAR nine
ENCODING 57
SWIDTH 600 0
DWIDTH 15 0
BBX 13 17 3 0
BITMAP
01C0
07F0
0FF0
1C38
1838
1838
3838
3878
38F8
1FF0
1FB0
0670
00E0
03C0
7F80
FE00
7800
ENDCHAR

STARTCHAR colon
ENCODING 58
SWIDTH 600 0
DWIDTH 15 0
BBX 6 11 6 0
BITMAP
1C
3C
38
00
00
00
00
00
70
F0
E0
ENDCHAR

STARTCHAR semicolon
ENCODING 59
SWIDTH 600 0
DWIDTH 15 0
BBX 8 13 3 -2
BITMAP
07
0F
0E
00
00
00
00
1C
38
30
60
40
C0
ENDCHAR

STARTCHAR less
ENCODING 60
SWIDTH 600 0
DWIDTH 15 0
BBX 16 14 1 0
BITMAP
0007
001F
007C
01F0
07C0
1F00
F800
7C00
1F00
0FC0
03E0
00F8
0078
0018
ENDCHAR

STARTCHAR equal
ENCODING 61
SWIDTH 600 0
DWIDTH 15 0
BBX 15 8 2 3
BITMAP
7FFC
7FFE
7FFC
0000
0000
FFF8
FFFC
FFF8
ENDCHAR

STARTCHAR greater
ENCODING 62
SWIDTH 600 0
DWIDTH 15 0
BBX 16 14 1 0
BITMAP
1C00
1E00
0F80
07E0
01F0
00FC
001F
007E
01F8
07E0
1F80
7E00
F800
6000
ENDCHAR

STARTCHAR question
ENCODING 63
SWIDTH 600 0
DWIDTH 15 0
BBX 11 16 5 0
BITMAP
0F00
7FC0
7FE0
E0E0
E0E0
00E0
03C0
0F80
1E00
1800
1800
0000
0000
3800
7800
3000
ENDCHAR

STARTCHAR at
ENCODING 64
SWIDTH 600 0
DWIDTH 15 0
BBX 12 18 3 -2
BITMAP
03C0
0FE0
1C70
1830
3030
30F0
63E0
6760
6C60
6C60
CC40
C7E0
C3C0
C000
C000
E180
7F80
3E00
ENDCHAR

STARTCHAR A
ENCODING 65
SWIDTH 600 0
DWIDTH 15 0
BBX 16 15 0 0
BITMAP
07F0
07F0
06F0
01D8
01B8
03B8
0718
0618
0FFC
1FFC
1FFC
300C
FC3F
FC7F
FC3E
ENDCHAR

STARTCHAR B
ENCODING 66
SWIDTH 600 0
DWIDTH 15 0
BBX 15 15 1 0
BITMAP
1FF0
3FFC
1FFE
0E0E
0C0E
0C1C
1FFC
1FF8
1FFC
1C0E
380E
380E
FFFC
FFF8
FFE0
ENDCHAR

STARTCHAR C
ENCODING 67
SWIDTH 600 0
DWIDTH 15 0
BBX 15 16 2 0
BITMAP
01E0
07FE
0FFE
1C1E
380C
700C
6000
6000
E000
E000
E000
E010
7038
7FF0
3FE0
0F80
ENDCHAR

STARTCHAR D
ENCODING 68
SWIDTH 600 0
DWIDTH 15 0
BBX 15 15 2 0
BITMAP
1FE0
3FF8
1FFC
0C1E
1C0E
1C0E
180E
180E
380C
381C
301C
3038
FFF0
FFE0
FF00
ENDCHAR

STARTCHAR E
ENCODING 69
SWIDTH 600 0
DWIDTH 15 0
BBX 15 15 1 0
BITMAP
1FFE
3FFE
1FFE
0C0E
0C4C
1CE4
1FC0
1FC0
1FC0
19C8
381C
301C
FFF8
FFF8
FFF8
ENDCHAR

STARTCHAR F
ENCODING 70
SWIDTH 600 0
DWIDTH 15 0
BBX 17 15 1 0
BITMAP
0FFF80
1FFF80
0FFF00
060300
0E3700
0E6200
0FE000
0FE000
0FE000
1CE000
1C4000
1C0000
7F8000
FF8000
7F8000
ENDCHAR

STARTCHAR G
ENCODING 71
SWIDTH 600 0
DWIDTH 15 0
BBX 15 16 2 0
BITMAP
01F0
07FE
0FFE
1C1E
380C
700C
7000
6000
E1FC
E1FC
E1DC
E038
7038
7FF0
3FF0
0F80
ENDCHAR

STARTCHAR H
ENCODING 72
SWIDTH 600 0
DWIDTH 15 0
BBX 16 15 1 0
BITMAP
0F9F
1FBF
1F1E
0C0C
0C1C
1C1C
1FFC
1FF8
1FF8
3838
3838
3030
7CF8
FDFC
F8F8
ENDCHAR

STARTCHAR I
ENCODING 73
SWIDTH 600 0
DWIDTH 15 0
BBX 14 15 2 0
BITMAP
0FFC
1FFC
1FF8
0180
0380
0380
0380
0300
0300
0700
0700
0600
7FE0
FFE0
7FC0
ENDCHAR

STARTCHAR J
ENCODING 74
SWIDTH 600 0
DWIDTH 15 0
BBX 16 15 2 0
BITMAP
01FF
03FF
03FE
0038
0030
0030
0070
0070
6070
E060
E0E0
E0E0
FFC0
7F80
1C00
ENDCHAR

STARTCHAR K
ENCODING 75
SWIDTH 600 0
DWIDTH 15 0
BBX 17 15 1 0
BITMAP
1F9F80
3F9F00
1F9F00
0C3C00
0CF000
1DE000
1F8000
1FC000
1EE000
18F000
387000
307000
FC3C00
FE3C00
FC3C00
ENDCHAR

STARTCHAR L
ENCODING 76
SWIDTH 600 0
DWIDTH 15 0
BBX 15 15 1 0
BITMAP
1FF0
1FE0
1BE0
0700
0700
0600
0600
0600
0E06
0E0C
0C0C
0C0C
7FFC
FFFC
7FF8
ENDCHAR

STARTCHAR M
ENCODING 77
SWIDTH 600 0
DWIDTH 15 0
BBX 18 15 0 0
BITMAP
1E03C0
1F07C0
1F07C0
0F0F00
1F1F00
1D9B00
1BBB00
1BB700
39E600
39E600
39CE00
300E00
7C3F00
FC7F00
FC3E00
ENDCHAR

STARTCHAR N
ENCODING 78
SWIDTH 600 0
DWIDTH 15 0
BBX 17 15 1 0
BITMAP
3E1F00
3E3F80
3F1F00
1F0E00
1F0E00
1B8C00
1B8C00
39DC00
39DC00
30E800
30F800
30F800
FC7800
FC7800
F83000
ENDCHAR

STARTCHAR O
ENCODING 79
SWIDTH 600 0
DWIDTH 15 0
BBX 15 16 2 0
BITMAP
01E0
07F8
0FFC
1C1C
380E
700E
600E
600E
E00E
E00C
E01C
E038
7070
7FE0
3FC0
0E00
ENDCHAR

STARTCHAR P
ENCODING 80
SWIDTH 600 0
DWIDTH 15 0
BBX 15 15 1 0
BITMAP
1FF0
3FFC
1FFE
0E0E
0C0E
0C0E
1C1C
1FF8
1FF0
1FC0
1800
3800
7F00
FF80
FF00
ENDCHAR

STARTCHAR Q
ENCODING 81
SWIDTH 600 0
DWIDTH 15 0
BBX 15 19 2 -4
BITMAP
01E0
07F8
0FFC
1C1C
380E
700E
600E
E00E
E00C
E01C
E018
7038
78F0
3FE0
1F80
3E10
7FF8
7FF0
60C0
ENDCHAR

STARTCHAR R
ENCODING 82
SWIDTH 600 0
DWIDTH 15 0
BBX 15 15 1 0
BITMAP
1FF0
3FFC
1FFE
0E0E
0C0E
0C1C
1FF8
1FE0
1FF0
1870
1838
3838
7E1E
FE1E
FC0C
ENDCHAR

STARTCHAR S
ENCODING 83
SWIDTH 600 0
DWIDTH 15 0
BBX 14 16 2 0
BITMAP
01E0
07FC
1FFC
1C1C
381C
3818
3E00
1FE0
0FF0
00F8
4038
E038
F070
FFF0
FFC0
0F00
ENDCHAR

STARTCHAR T
ENCODING 84
SWIDTH 600 0
DWIDTH 15 0
BBX 14 15 3 0
BITMAP
7FFC
7FFC
7FFC
E318
E718
C738
4710
0600
0600
0E00
0E00
0C00
7F80
FF80
7F80
ENDCHAR

STARTCHAR U
ENCODING 85
SWIDTH 600 0
DWIDTH 15 0
BBX 15 15 3 0
BITMAP
7E7E
7EFE
7C7C
3018
7038
7038
7030
6030
6070
E070
E060
E0E0
7FC0
3F80
1E00
ENDCHAR

STARTCHAR V
ENCODING 86
SWIDTH 600 0
DWIDTH 15 0
BBX 17 15 2 0
BITMAP
7E3F80
FE3F00
7C2F00
381C00
381800
383800
187000
1C6000
1CE000
1DC000
1D8000
0F8000
0F0000
0F0000
0E0000
ENDCHAR

STARTCHAR W
ENCODING 87
SWIDTH 600 0
DWIDTH 15 0
BBX 16 15 2 0
BITMAP
7E3F
7E3F
7C3E
700E
738C
739C
77D8
77D8
6ED8
6DD0
7DF0
79F0
70E0
F0E0
E0E0
ENDCHAR

STARTCHAR X
ENCODING 88
SWIDTH 600 0
DWIDTH 15 0
BBX 16 15 1 0
BITMAP
1F1F
3F1F
1E1F
0E1C
0738
07F0
03E0
03C0
07E0
0F60
1C70
3830
F87C
FCFC
F8F8
ENDCHAR

STARTCHAR Y
ENCODING 89
SWIDTH 600 0
DWIDTH 15 0
BBX 14 15 3 0
BITMAP
7C7C
FC7C
787C
3870
1CE0
1DC0
0F80
0F00
0600
0E00
0E00
0C00
7F80
FF80
7F80
ENDCHAR

STARTCHAR Z
ENCODING 90
SWIDTH 600 0
DWIDTH 15 0
BBX 14 15 2 0
BITMAP
1FFC
1FFC
1FB8
1878
18F0
19E0
0380
0700
0E00
1C30
3830
7070
FFF0
FFF0
FFE0
ENDCHAR

STARTCHAR bracketleft
ENCODING 91
SWIDTH 600 0
DWIDTH 15 0
BBX 10 20 5 -4
BITMAP
07C0
0FC0
0F80
0C00
0C00
1C00
1C00
1C00
1800
1800
3800
3800
3000
3000
3000
7000
7000
7C00
7C00
FC00
ENDCHAR

STARTCHAR backslash
ENCODING 92
SWIDTH 600 0
DWIDTH 15 0
BBX 7 21 6 -3
BITMAP
C0
C0
E0
E0
E0
E0
70
70
70
30
38
38
38
18
1C
1C
1C
0C
0E
0E
04
ENDCHAR

STARTCHAR bracketright
ENCODING 93
SWIDTH 600 0
DWIDTH 15 0
BBX 9 20 3 -4
BITMAP
0F80
1F80
0F80
0300
0300
0300
0700
0700
0600
0600
0E00
0E00
0E00
0C00
0C00
1C00
1C00
F800
F800
F800
ENDCHAR

STARTCHAR asciicircum
ENCODING 94
SWIDTH 600 0
DWIDTH 15 0
BBX 11 9 4 8
BITMAP
0100
0300
0700
0F80
1DC0
39C0
71E0
E0E0
C040
ENDCHAR

STARTCHAR underscore
ENCODING 95
SWIDTH 600 0
DWIDTH 15 0
BBX 15 1 0 -3
BITMAP
FFFE
ENDCHAR

STARTCHAR quoteleft
ENCODING 96
SWIDTH 600 0
DWIDTH 15 0
BBX 4 8 8 8
BITMAP
F0
70
70
70
30
30
30
10
ENDCHAR

STARTCHAR a
ENCODING 97
SWIDTH 600 0
DWIDTH 15 0
BBX 13 12 1 0
BITMAP
03E0
1FF0
1FF8
0038
07F8
1FF0
7FB0
7070
E0F0
FFF8
7FF8
1C78
ENDCHAR

STARTCHAR b
ENCODING 98
SWIDTH 600 0
DWIDTH 15 0
BBX 16 16 0 0
BITMAP
0F00
1F00
0E00
0600
0E70
0FFC
0FFE
0F0F
0E07
1C07
1C07
1C06
1C1E
7FFC
FFF8
7BC0
ENDCHAR

STARTCHAR c
ENCODING 99
SWIDTH 600 0
DWIDTH 15 0
BBX 14 12 2 0
BITMAP
03C0
0FFC
3FF8
3838
7038
6010
E000
E000
F038
7FF0
3FE0
0F80
ENDCHAR

STARTCHAR d
ENCODING 100
SWIDTH 600 0
DWIDTH 15 0
BBX 15 16 2 0
BITMAP
001E
003E
001E
000C
038C
0FFC
1FFC
383C
7038
6038
E038
E038
F070
7FFC
3FFC
0E78
ENDCHAR

STARTCHAR e
ENCODING 101
SWIDTH 600 0
DWIDTH 15 0
BBX 14 12 1 0
BITMAP
03C0
0FF0
3FF8
701C
7FFC
FFFC
FFFC
E000
F038
7FF8
3FF0
0F80
ENDCHAR

STARTCHAR f
ENCODING 102
SWIDTH 600 0
DWIDTH 15 0
BBX 15 16 2 0
BITMAP
007C
01FE
03FE
0300
0700
1FF8
3FF8
1FF0
0600
0E00
0E00
0C00
0C00
7FE0
FFE0
7FC0
ENDCHAR

STARTCHAR g
ENCODING 103
SWIDTH 600 0
DWIDTH 15 0
BBX 15 17 2 -5
BITMAP
039E
1FFE
3FFC
7878
7038
E030
E030
E070
F0F0
7FF0
3FE0
1E60
00E0
00C0
3FC0
7F80
7E00
ENDCHAR

STARTCHAR h
ENCODING 104
SWIDTH 600 0
DWIDTH 15 0
BBX 14 16 1 0
BITMAP
1F00
1E00
1600
0E00
0EE0
0FF8
0FFC
0E1C
1C1C
1C18
1818
1838
3838
7C7C
FCFC
7C78
ENDCHAR

STARTCHAR i
ENCODING 105
SWIDTH 600 0
DWIDTH 15 0
BBX 12 16 2 0
BITMAP
01C0
0380
0380
0000
0000
1F80
1F80
1F80
0300
0300
0700
0700
0600
7FE0
FFF0
FFE0
ENDCHAR

STARTCHAR j
ENCODING 106
SWIDTH 600 0
DWIDTH 15 0
BBX 13 22 1 -6
BITMAP
0070
0070
0070
0000
0000
0FF8
1FF8
0FF0
0030
0070
0070
0070
0060
0060
00E0
00E0
00C0
00C0
01C0
7F80
FF00
7C00
ENDCHAR

STARTCHAR k
ENCODING 107
SWIDTH 600 0
DWIDTH 15 0
BBX 14 16 1 0
BITMAP
0F00
1F00
1E00
0600
0E00
0E7C
0CFC
0CFC
0DC0
1F00
1F80
1DC0
19E0
78F8
F9FC
78F8
ENDCHAR

STARTCHAR l
ENCODING 108
SWIDTH 600 0
DWIDTH 15 0
BBX 12 16 2 0
BITMAP
0FC0
0FC0
0FC0
0180
0180
0180
0380
0380
0300
0300
0700
0700
0600
7FE0
FFF0
FFE0
ENDCHAR

STARTCHAR m
ENCODING 109
SWIDTH 600 0
DWIDTH 15 0
BBX 16 12 0 0
BITMAP
3D8C
3FFF
3EF7
18E7
38C6
38C6
39C6
31CE
318E
F9CF
FBEF
FBCE
ENDCHAR

STARTCHAR n
ENCODING 110
SWIDTH 600 0
DWIDTH 15 0
BBX 14 12 1 0
BITMAP
1EF0
3FF8
0FBC
1E1C
1C1C
1C18
1818
1838
3838
7C7C
FCFC
7C78
ENDCHAR

STARTCHAR o
ENCODING 111
SWIDTH 600 0
DWIDTH 15 0
BBX 14 12 2 0
BITMAP
03C0
0FF0
1FF8
383C
701C
E01C
E01C
E038
F078
7FF0
3FC0
0F00
ENDCHAR

STARTCHAR p
ENCODING 112
SWIDTH 600 0
DWIDTH 15 0
BBX 17 17 -1 -5
BITMAP
0F3800
1FFE00
0FCF00
070380
0E0380
0E0380
0E0300
0F0700
0FFE00
1FFC00
1DF000
1C0000
180000
180000
7F0000
FF0000
FE0000
ENDCHAR

STARTCHAR q
ENCODING 113
SWIDTH 600 0
DWIDTH 15 0
BBX 16 17 2 -5
BITMAP
03DE
1FFF
3FFE
7838
6038
E038
E038
F070
7FF0
3FF0
1F70
0070
0060
0060
03F8
07F8
07F0
ENDCHAR

STARTCHAR r
ENCODING 114
SWIDTH 600 0
DWIDTH 15 0
BBX 14 12 2 0
BITMAP
1E38
3EFC
3FFC
0F88
0F00
0C00
0C00
1C00
1C00
FFE0
FFC0
FFC0
ENDCHAR

STARTCHAR s
ENCODING 115
SWIDTH 600 0
DWIDTH 15 0
BBX 13 12 2 0
BITMAP
03C0
0FF0
1FF8
3870
3E10
1FE0
0FF0
0070
6070
77E0
FFC0
CF00
ENDCHAR

STARTCHAR t
ENCODING 116
SWIDTH 600 0
DWIDTH 15 0
BBX 12 16 3 0
BITMAP
0C00
0C00
1C00
1C00
7FE0
FFF0
7FE0
3800
3800
3000
3000
7000
7060
7FE0
3FC0
1E00
ENDCHAR

STARTCHAR u
ENCODING 117
SWIDTH 600 0
DWIDTH 15 0
BBX 12 12 3 0
BITMAP
F8F0
F1F0
F1F0
7070
7060
6060
6060
60E0
E0E0
E7F0
7FF0
38E0
ENDCHAR

STARTCHAR v
ENCODING 118
SWIDTH 600 0
DWIDTH 15 0
BBX 15 12 2 0
BITMAP
7E7E
FEFE
FC7C
3830
3870
18E0
1DC0
1DC0
1D80
0F00
0F00
0E00
ENDCHAR

STARTCHAR w
ENCODING 119
SWIDTH 600 0
DWIDTH 15 0
BBX 15 12 2 0
BITMAP
783E
FC7E
F83C
7398
77B8
77B0
77B0
7DF0
7DE0
79E0
79C0
71C0
ENDCHAR

STARTCHAR x
ENCODING 120
SWIDTH 600 0
DWIDTH 15 0
BBX 15 12 1 0
BITMAP
1F3E
3F7E
3E3C
0F78
07E0
03C0
07C0
0FE0
3870
FCFC
FCFC
F8F8
ENDCHAR

STARTCHAR y
ENCODING 121
SWIDTH 600 0
DWIDTH 15 0
BBX 17 17 0 -6
BITMAP
1F0F00
1F1F80
1C1F00
0E0E00
0E1C00
0E3800
073000
077000
076000
03C000
03C000
038000
070000
060000
FF8000
FF0000
FF0000
ENDCHAR

STARTCHAR z
ENCODING 122
SWIDTH 600 0
DWIDTH 15 0
BBX 13 12 2 0
BITMAP
1FF8
3FF8
3F70
38E0
31C0
0780
0F00
1E00
3C70
7FF0
FFE0
FFE0
ENDCHAR

STARTCHAR braceleft
ENCODING 123
SWIDTH 600 0
DWIDTH 15 0
BBX 8 20 5 -4
BITMAP
03
0F
0F
1C
1C
18
18
38
38
F0
F0
30
30
30
70
60
60
78
78
30
ENDCHAR

STARTCHAR bar
ENCODING 124
SWIDTH 600 0
DWIDTH 15 0
BBX 3 20 6 -4
BITMAP
40
E0
E0
E0
E0
E0
E0
E0
E0
E0
E0
E0
E0
E0
E0
E0
E0
E0
E0
40
ENDCHAR

STARTCHAR braceright
ENCODING 125
SWIDTH 600 0
DWIDTH 15 0
BBX 8 20 4 -4
BITMAP
0C
1E
0E
06
06
0E
0C
0C
0C
0F
0F
1C
18
18
18
38
38
F0
E0
C0
ENDCHAR

STARTCHAR asciitilde
ENCODING 126
SWIDTH 600 0
DWIDTH 15 0
BBX 12 6 3 4
BITMAP
1800
3E30
FF70
E7E0
C7C0
0180
ENDCHAR

STARTCHAR space
ENCODING 160
SWIDTH 600 0
DWIDTH 16 0
BBX 0 0 0 0
BITMAP
ENDCHAR

STARTCHAR afii10023
ENCODING 161
SWIDTH 600 0
DWIDTH 15 0
BBX 16 20 0 0
BITMAP
0086
01CE
0184
0000
0000
0FFF
1FFF
1FFE
0606
0E26
0E64
0FE0
0FE0
0FE0
1CC4
1C0C
180C
7FFC
FFFC
7FF8
ENDCHAR

STARTCHAR afii10051
ENCODING 162
SWIDTH 600 0
DWIDTH 15 0
BBX 14 15 2 0
BITMAP
3FE0
7FF0
7FF0
E660
6660
0E00
0EF0
0FF8
0FFC
1E1C
1C1C
181C
7C38
7EF8
7CF0
ENDCHAR

STARTCHAR afii10052
ENCODING 163
SWIDTH 600 0
DWIDTH 15 0
BBX 17 20 1 0
BITMAP
001800
003000
00E000
004000
000000
1FFF80
3FFF00
3FFB00
0E0700
0E0700
0C0600
0C0600
1C0000
1C0000
180000
180000
380000
FF8000
FF0000
FF0000
ENDCHAR

STARTCHAR afii10053
ENCODING 164
SWIDTH 600 0
DWIDTH 15 0
BBX 15 16 2 0
BITMAP
01C0
07F6
1FFE
3C1E
380C
600C
7FC0
7FC0
FFC0
E000
E000
E018
7038
7FF0
3FE0
0F80
ENDCHAR

STARTCHAR afii10054
ENCODING 165
SWIDTH 600 0
DWIDTH 15 0
BBX 14 16 2 0
BITMAP
01E0
07FC
1FFC
1C1C
381C
3818
3E00
1FE0
0FF0
00F8
4038
E038
F070
FFF0
FFC0
0F00
ENDCHAR

STARTCHAR afii10055
ENCODING 166
SWIDTH 600 0
DWIDTH 15 0
BBX 14 15 2 0
BITMAP
0FFC
1FFC
1FF8
0180
0380
0380
0380
0300
0300
0700
0700
0600
7FE0
FFE0
7FC0
ENDCHAR

STARTCHAR afii10056
ENCODING 167
SWIDTH 600 0
DWIDTH 15 0
BBX 13 20 2 0
BITMAP
0218
0738
0610
0000
0000
1FF8
1FF8
1DF8
0380
0380
0300
0300
0300
0700
0700
0600
0600
7FE0
FFE0
FFC0
ENDCHAR

STARTCHAR afii10057
ENCODING 168
SWIDTH 600 0
DWIDTH 15 0
BBX 16 15 2 0
BITMAP
01FF
03FF
03FE
0038
0030
0030
0070
0070
6070
E060
E0E0
E0E0
FFC0
7F80
1C00
ENDCHAR

STARTCHAR afii10058
ENCODING 169
SWIDTH 600 0
DWIDTH 15 0
BBX 16 15 0 0
BITMAP
07FC
0FFE
07FC
03B8
0330
0330
037C
077E
077F
0667
46E7
EEE6
EDFE
FDFC
F1F0
ENDCHAR

STARTCHAR afii10059
ENCODING 170
SWIDTH 600 0
DWIDTH 15 0
BBX 16 15 1 0
BITMAP
1E7C
3EFE
1EFC
1C70
1C60
1860
1FF8
3FFE
3FFF
30C7
30C7
31C7
FBFE
FBFC
F3F0
ENDCHAR

STARTCHAR afii10060
ENCODING 171
SWIDTH 600 0
DWIDTH 15 0
BBX 14 15 2 0
BITMAP
3FE0
7FF0
7FF0
E660
4620
0EC0
0FF0
0FF8
0E38
1C38
1C38
1830
7CF8
7EFC
7CF8
ENDCHAR

STARTCHAR afii10061
ENCODING 172
SWIDTH 600 0
DWIDTH 15 0
BBX 16 20 1 0
BITMAP
0018
0030
00E0
0040
0000
1F8F
1F9F
1F3F
0E76
0CE0
0FC0
0F80
1FC0
1CE0
18E0
1860
1860
7C7C
FE3C
7C3C
ENDCHAR

STARTCHAR hyphen
ENCODING 173
SWIDTH 600 0
DWIDTH 15 0
BBX 11 2 4 6
BITMAP
FFE0
FFC0
ENDCHAR

STARTCHAR afii10062
ENCODING 174
SWIDTH 600 0
DWIDTH 15 0
BBX 16 20 2 0
BITMAP
0618
0630
03E0
0000
0000
7C3F
7E3F
3C1E
1C38
1C38
1C70
0EE0
0EC0
0780
0780
4700
EE00
FC00
F800
F000
ENDCHAR

STARTCHAR afii10145
ENCODING 175
SWIDTH 600 0
DWIDTH 15 0
BBX 16 18 1 -3
BITMAP
1F9F
3F3F
1F3E
0C0C
1C1C
1C1C
1C18
1818
1838
3838
3838
3030
7FF8
FFF8
7FF0
0700
0600
0600
ENDCHAR

STARTCHAR afii10017
ENCODING 176
SWIDTH 600 0
DWIDTH 15 0
BBX 16 15 0 0
BITMAP
07F0
07F0
06F0
01D8
01B8
03B8
0718
0618
0FFC
1FFC
1FFC
300C
FC3F
FC7F
FC7E
ENDCHAR

STARTCHAR afii10018
ENCODING 177
SWIDTH 600 0
DWIDTH 15 0
BBX 16 15 1 0
BITMAP
1FFF
3FFF
3FFE
0E06
0E0E
0C04
0FF0
1FFC
1FFE
1C0E
180E
180E
7FFC
FFF8
FFE0
ENDCHAR

STARTCHAR afii10019
ENCODING 178
SWIDTH 600 0
DWIDTH 15 0
BBX 15 15 1 0
BITMAP
1FF0
3FFC
1FFE
0E0E
0C0E
0C1C
1FFC
1FF8
1FFC
1C0E
380E
380E
FFFC
FFF8
FFE0
ENDCHAR

STARTCHAR afii10020
ENCODING 179
SWIDTH 600 0
DWIDTH 15 0
BBX 17 15 1 0
BITMAP
1FFF80
3FFF00
3FFB00
0E0700
0E0700
0C0600
0C0600
1C0000
1C0000
180000
180000
380000
FF8000
FF0000
FF0000
ENDCHAR

STARTCHAR afii10021
ENCODING 180
SWIDTH 600 0
DWIDTH 15 0
BBX 17 18 0 -3
BITMAP
07FF80
07FF80
05F700
038E00
038E00
038C00
030C00
031C00
071C00
071C00
0E1800
0C1800
7FFC00
7FFE00
FFFE00
E00C00
E00C00
C00C00
ENDCHAR

STARTCHAR afii10022
ENCODING 181
SWIDTH 600 0
DWIDTH 15 0
BBX 15 15 1 0
BITMAP
1FFE
3FFE
1FFE
0C0E
0C4C
1CE4
1FC0
1FC0
1FC0
19C8
381C
301C
FFF8
FFF8
FFF8
ENDCHAR

STARTCHAR afii10024
ENCODING 182
SWIDTH 600 0
DWIDTH 15 0
BBX 18 15 0 0
BITMAP
1CF180
1EFBC0
1E6780
1B6E80
076C00
036800
03F000
07F800
0ED800
1DD800
1DDC00
399C00
73CE00
F7CE00
63CE00
ENDCHAR

STARTCHAR afii10025
ENCODING 183
SWIDTH 600 0
DWIDTH 15 0
BBX 15 17 1 0
BITMAP
0400
0EF0
0FFC
0FFE
0E0E
1C0E
181C
0BFC
03F8
03FC
001C
001C
C01C
F038
FFF8
3FE0
0F80
ENDCHAR

STARTCHAR afii10026
ENCODING 184
SWIDTH 600 0
DWIDTH 15 0
BBX 16 15 1 0
BITMAP
3F8F
3F9F
3F3E
0C3C
1C7C
1CEC
19D8
1998
3B38
3B38
3E30
3C30
F8FC
F9FC
F1F8
ENDCHAR

STARTCHAR afii10027
ENCODING 185
SWIDTH 600 0
DWIDTH 15 0
BBX 16 20 1 0
BITMAP
0304
019C
01F0
0000
0000
3F8F
3F9F
3F3E
0C3C
1C7C
1CEC
19D8
1998
3B38
3B38
3E30
3C30
F8FC
F9FC
F1F8
ENDCHAR

STARTCHAR afii10028
ENCODING 186
SWIDTH 600 0
DWIDTH 15 0
BBX 16 15 1 0
BITMAP
1F8F
1F9F
1F3F
0E76
0CE0
0FC0
0F80
1FC0
1CE0
18E0
1860
1860
7C7C
FE3C
7C3C
ENDCHAR

STARTCHAR afii10029
ENCODING 187
SWIDTH 600 0
DWIDTH 15 0
BBX 17 15 0 0
BITMAP
07FF80
07FF80
05F700
038E00
038E00
038E00
030C00
030C00
071C00
071C00
661800
EE1800
EE7C00
FC7E00
707C00
ENDCHAR

STARTCHAR afii10030
ENCODING 188
SWIDTH 600 0
DWIDTH 15 0
BBX 18 15 0 0
BITMAP
1E03C0
1F07C0
1F0780
0F0F00
1F1F00
1D9B00
1BBB00
1BB700
39E600
39E600
39CE00
300E00
FC3F00
FC7F00
FC3E00
ENDCHAR

STARTCHAR afii10031
ENCODING 189
SWIDTH 600 0
DWIDTH 15 0
BBX 16 15 1 0
BITMAP
1F9F
1FBF
1F1E
0C0C
0C1C
1C1C
1FFC
1FF8
1FD8
1838
3838
3030
7CF8
FDFC
F8F8
ENDCHAR

STARTCHAR afii10032
ENCODING 190
SWIDTH 600 0
DWIDTH 15 0
BBX 15 16 2 0
BITMAP
01E0
07F8
0FFC
1C1C
380E
700E
600E
600E
E00E
E00C
E01C
E038
7070
7FE0
3FC0
0E00
ENDCHAR

STARTCHAR afii10033
ENCODING 191
SWIDTH 600 0
DWIDTH 15 0
BBX 16 15 1 0
BITMAP
1FFF
1FFF
1FFE
0C0C
0C1C
1C1C
1C1C
1818
1818
1838
3838
3030
7CF8
FDFC
F8F8
ENDCHAR

STARTCHAR afii10034
ENCODING 192
SWIDTH 600 0
DWIDTH 15 0
BBX 15 15 1 0
BITMAP
1FF0
3FFC
1FFE
0E0E
0C0E
0C0E
1C1C
1FF8
1FF0
1FC0
1800
3800
7F00
FF80
FF00
ENDCHAR

STARTCHAR afii10035
ENCODING 193
SWIDTH 600 0
DWIDTH 15 0
BBX 15 16 2 0
BITMAP
01E0
07FE
0FFE
1C1E
380C
700C
6000
6000
E000
E000
E000
E010
7038
7FF0
3FE0
0F80
ENDCHAR

STARTCHAR afii10036
ENCODING 194
SWIDTH 600 0
DWIDTH 15 0
BBX 14 15 3 0
BITMAP
7FFC
7FFC
7FFC
E318
E718
C738
4710
0600
0600
0E00
0E00
0C00
7F80
FF80
7F80
ENDCHAR

STARTCHAR afii10037
ENCODING 195
SWIDTH 600 0
DWIDTH 15 0
BBX 16 15 2 0
BITMAP
7C3E
7E3F
3C1E
1C38
1C38
1C70
0EE0
0EC0
0780
0780
4700
EE00
FC00
F800
F000
ENDCHAR

STARTCHAR afii10038
ENCODING 196
SWIDTH 600 0
DWIDTH 15 0
BBX 15 15 2 0
BITMAP
03F8
07F0
01C0
1FFC
7FFE
719E
E38E
E38E
F39C
7FF8
7FF0
0700
0700
1FC0
1FC0
ENDCHAR

STARTCHAR afii10039
ENCODING 197
SWIDTH 600 0
DWIDTH 15 0
BBX 16 15 1 0
BITMAP
1F1F
3F1F
1E1F
0E1C
0778
07F0
03E0
03C0
07E0
0F60
1C70
3830
F87C
FCFC
F8F8
ENDCHAR

STARTCHAR afii10040
ENCODING 198
SWIDTH 600 0
DWIDTH 15 0
BBX 16 18 1 -3
BITMAP
3F3F
3F3F
3E3E
1C1C
1C18
1818
1818
3838
3838
3830
3030
3070
7FFC
FFFC
FFFC
001C
0018
0018
ENDCHAR

STARTCHAR afii10041
ENCODING 199
SWIDTH 600 0
DWIDTH 15 0
BBX 14 15 3 0
BITMAP
7C7C
FEFC
7C7C
3830
3030
3070
7070
71E0
7FE0
3FE0
0CE0
00C0
07E0
0FF0
07E0
ENDCHAR

STARTCHAR afii10042
ENCODING 200
SWIDTH 600 0
DWIDTH 15 0
BBX 18 15 0 0
BITMAP
1EF3C0
3EFBC0
1CF780
0CE600
1CE600
1CC600
18CE00
19CE00
19CC00
39CC00
399C00
319C00
7FFF00
FFFE00
7FFE00
ENDCHAR

STARTCHAR afii10043
ENCODING 201
SWIDTH 600 0
DWIDTH 15 0
BBX 18 18 0 -3
BITMAP
1EF3C0
3EFBC0
1CF780
0CE600
1CE600
1CC600
18CE00
19CE00
19CC00
39CC00
399C00
319C00
7FFF00
FFFF00
7FFF00
000700
000700
000600
ENDCHAR

STARTCHAR afii10044
ENCODING 202
SWIDTH 600 0
DWIDTH 15 0
BBX 15 15 2 0
BITMAP
7FE0
FFF0
FFE0
E300
C300
C300
87F0
07FC
07FE
060E
0E0E
0E0E
3FFC
3FF8
3FE0
ENDCHAR

STARTCHAR afii10045
ENCODING 203
SWIDTH 600 0
DWIDTH 15 0
BBX 18 15 0 0
BITMAP
1F8780
3FCFC0
1F8F80
0C0300
0C0700
0C0700
1F0700
1FC600
1FE600
18EE00
38EE00
38EC00
7FDE00
FFBF00
7E1E00
ENDCHAR

STARTCHAR afii10046
ENCODING 204
SWIDTH 600 0
DWIDTH 15 0
BBX 15 15 1 0
BITMAP
1FC0
1FC0
1780
0E00
0E00
0C00
0FF0
1FFC
1FFE
1C0E
180E
180E
7FFC
FFF8
FFE0
ENDCHAR

STARTCHAR afii10047
ENCODING 205
SWIDTH 600 0
DWIDTH 15 0
BBX 14 17 1 0
BITMAP
0400
0DE0
1FF8
1FF8
1C1C
181C
380C
300C
01FC
03FC
01FC
001C
4038
E078
FFF0
3FC0
0F00
ENDCHAR

STARTCHAR afii10048
ENCODING 206
SWIDTH 600 0
DWIDTH 15 0
BBX 17 15 0 0
BITMAP
1F1C00
3F7F00
1EFF80
1CE380
1DC180
198180
1F8180
3F8180
3F8380
338380
338300
318700
F9FE00
FCFC00
F87000
ENDCHAR

STARTCHAR afii10049
ENCODING 207
SWIDTH 600 0
DWIDTH 15 0
BBX 16 15 1 0
BITMAP
01FE
07FF
0FFE
1C1C
1C18
1C18
0FF8
07F8
03F0
0730
0E70
1C70
78F0
F1F8
70F8
ENDCHAR

STARTCHAR afii10065
ENCODING 208
SWIDTH 600 0
DWIDTH 15 0
BBX 13 12 1 0
BITMAP
03E0
1FF0
1FF8
0038
07F8
1FF0
7FF0
7070
E0F0
FFF8
7FF8
1E78
ENDCHAR

STARTCHAR afii10066
ENCODING 209
SWIDTH 600 0
DWIDTH 15 0
BBX 13 18 2 0
BITMAP
0018
0018
0018
0FF8
1FF0
3C00
33C0
7FE0
7FF0
7838
E038
E038
E038
E030
70F0
7FE0
3FC0
0F00
ENDCHAR

STARTCHAR afii10067
ENCODING 210
SWIDTH 600 0
DWIDTH 15 0
BBX 14 11 1 0
BITMAP
3FF0
7FFC
3FFC
180C
1FFC
1FF0
3FF8
301C
FFFC
FFF8
FFE0
ENDCHAR

STARTCHAR afii10068
ENCODING 211
SWIDTH 600 0
DWIDTH 15 0
BBX 15 12 1 0
BITMAP
3FFE
7FFE
3FFE
0C0E
1C0E
1C0C
1C0C
1800
1800
7F00
FF80
FF00
ENDCHAR

STARTCHAR afii10069
ENCODING 212
SWIDTH 600 0
DWIDTH 15 0
BBX 16 15 0 -3
BITMAP
07FE
0FFF
07EE
031C
031C
071C
0718
0618
0E38
7FFC
7FFC
7FEC
E01C
E01C
4008
ENDCHAR

STARTCHAR afii10070
ENCODING 213
SWIDTH 600 0
DWIDTH 15 0
BBX 13 12 2 0
BITMAP
07C0
1FF0
3FF8
6038
FFF8
FFF8
DFF8
E000
F030
7FF0
7FF0
0F00
ENDCHAR

STARTCHAR afii10072
ENCODING 214
SWIDTH 600 0
DWIDTH 15 0
BBX 16 11 0 0
BITMAP
19E7
3DEF
3EDF
37DB
03F0
0FF0
1DD8
1D98
7BDC
F3DE
63CC
ENDCHAR

STARTCHAR afii10073
ENCODING 215
SWIDTH 600 0
DWIDTH 15 0
BBX 13 12 2 0
BITMAP
1BC0
1FF0
1FF8
3838
3078
33E0
03F0
0038
E038
FFF0
7FE0
0F80
ENDCHAR

STARTCHAR afii10074
ENCODING 216
SWIDTH 600 0
DWIDTH 15 0
BBX 15 12 1 0
BITMAP
3F1E
7FBE
3F7E
1CF8
1DD8
19D8
1BB8
3F30
3E30
7CFC
F9FC
71F8
ENDCHAR

STARTCHAR afii10075
ENCODING 217
SWIDTH 600 0
DWIDTH 15 0
BBX 15 16 1 0
BITMAP
020C
0318
01F0
0000
3F1C
7FBE
3F7E
1CF8
1CD8
19D8
1BB8
3F30
3E30
7CFC
F9FC
71F8
ENDCHAR

STARTCHAR afii10076
ENCODING 218
SWIDTH 600 0
DWIDTH 15 0
BBX 14 12 2 0
BITMAP
3E3C
7E78
3EF8
19D8
1F80
3F00
3F80
31C0
31C0
F8F0
FCF8
F870
ENDCHAR

STARTCHAR afii10077
ENCODING 219
SWIDTH 600 0
DWIDTH 15 0
BBX 15 12 1 0
BITMAP
0FFC
1FFE
0FDC
0738
0738
0638
0630
0E30
CE70
FCF8
FDF8
F8F8
ENDCHAR

STARTCHAR afii10078
ENCODING 220
SWIDTH 600 0
DWIDTH 15 0
BBX 17 12 0 0
BITMAP
1C0780
3E0F80
3E0F00
1F1E00
1B3A00
1BB600
3BEE00
39CE00
300C00
7E3E00
FE7F00
FC7E00
ENDCHAR

STARTCHAR afii10079
ENCODING 221
SWIDTH 600 0
DWIDTH 15 0
BBX 16 11 0 0
BITMAP
1F1F
1FBF
1F1E
0C0C
1FFC
1FFC
1FFC
1818
7C3C
FE7E
7C7C
ENDCHAR

STARTCHAR afii10080
ENCODING 222
SWIDTH 600 0
DWIDTH 15 0
BBX 14 12 2 0
BITMAP
03C0
0FF0
1FF8
383C
701C
E01C
E01C
E038
F078
7FF0
3FC0
0F00
ENDCHAR

STARTCHAR afii10081
ENCODING 223
SWIDTH 600 0
DWIDTH 15 0
BBX 16 12 0 0
BITMAP
1FFF
1FFF
1FFE
0C0C
0C1C
1C1C
1C18
1818
1818
7E7C
FEFE
7CFC
ENDCHAR

STARTCHAR afii10082
ENCODING 224
SWIDTH 600 0
DWIDTH 15 0
BBX 17 17 -1 -5
BITMAP
0F3C00
1FFE00
0FFF00
070380
0E0380
0E0380
0E0300
0F0700
0FFE00
1FFC00
1DF000
1C0000
180000
180000
7F0000
FF0000
FE0000
ENDCHAR

STARTCHAR afii10083
ENCODING 225
SWIDTH 600 0
DWIDTH 15 0
BBX 14 12 2 0
BITMAP
03C0
0FFC
3FF8
3838
7038
6010
E000
E000
F038
7FF0
3FE0
0F80
ENDCHAR

STARTCHAR afii10084
ENCODING 226
SWIDTH 600 0
DWIDTH 15 0
BBX 14 12 2 0
BITMAP
7FFC
7FFC
7FFC
E318
E718
C738
C710
0600
0600
7FC0
7FC0
7F80
ENDCHAR

STARTCHAR afii10085
ENCODING 227
SWIDTH 600 0
DWIDTH 15 0
BBX 16 15 1 -4
BITMAP
3C3E
7E3F
3C1E
1C38
1C78
0E70
0EE0
07C0
07C0
0780
6700
6E00
FC00
FC00
7000
ENDCHAR

STARTCHAR afii10086
ENCODING 228
SWIDTH 600 0
DWIDTH 15 0
BBX 14 20 2 -4
BITMAP
02C0
07C0
03C0
0180
0FF0
1FF8
3FFC
739C
739C
631C
E71C
E718
E738
F678
7FF0
3FE0
0E00
3F80
7F80
3F80
ENDCHAR

STARTCHAR afii10087
ENCODING 229
SWIDTH 600 0
DWIDTH 15 0
BBX 15 12 1 0
BITMAP
1F3E
3F7E
3E3C
0F78
07E0
03C0
07C0
0FE0
3870
FCFC
FCFC
F8F8
ENDCHAR

STARTCHAR afii10088
ENCODING 230
SWIDTH 600 0
DWIDTH 15 0
BBX 16 15 1 -3
BITMAP
3F3E
7F7F
3E7E
1818
1818
3838
3838
3838
3030
7FFE
FFFC
7FEC
001C
001C
0008
ENDCHAR

STARTCHAR afii10089
ENCODING 231
SWIDTH 600 0
DWIDTH 15 0
BBX 13 12 2 0
BITMAP
7CF8
FDF8
7CF8
3060
7060
71E0
7FE0
3FE0
18C0
07E0
0FF0
07E0
ENDCHAR

STARTCHAR afii10090
ENCODING 232
SWIDTH 600 0
DWIDTH 15 0
BBX 17 12 0 0
BITMAP
3CF780
3DF780
3DE780
1CCE00
18CE00
19CE00
39CC00
39CC00
399C00
7FFF00
FFFF00
7FFE00
ENDCHAR

STARTCHAR afii10091
ENCODING 233
SWIDTH 600 0
DWIDTH 15 0
BBX 17 15 0 -3
BITMAP
3CF780
3DF780
3DE780
1CCE00
18CE00
19CE00
39CC00
39CC00
399C00
7FFF00
FFFF00
7FFF00
000700
000600
000600
ENDCHAR

STARTCHAR afii10092
ENCODING 234
SWIDTH 600 0
DWIDTH 15 0
BBX 14 11 1 0
BITMAP
7FF0
7FF0
7FE0
6380
E3E0
63F8
03FC
071C
0FFC
1FF8
1FE0
ENDCHAR

STARTCHAR afii10093
ENCODING 235
SWIDTH 600 0
DWIDTH 15 0
BBX 17 12 0 0
BITMAP
3F0F00
7F9F80
7F1700
180E00
180E00
3F0E00
3F8C00
3BCC00
31DC00
FFDE00
FFBE00
FE3E00
ENDCHAR

STARTCHAR afii10094
ENCODING 236
SWIDTH 600 0
DWIDTH 15 0
BBX 14 11 1 0
BITMAP
3F80
7F80
3F00
1800
1FE0
1FF8
3FFC
381C
FFFC
FFF8
FFE0
ENDCHAR

STARTCHAR afii10095
ENCODING 237
SWIDTH 600 0
DWIDTH 15 0
BBX 14 12 1 0
BITMAP
19E0
1FF0
1FF8
3C3C
381C
33FC
03FC
C1DC
F038
7FF0
3FE0
0780
ENDCHAR

STARTCHAR afii10096
ENCODING 238
SWIDTH 600 0
DWIDTH 15 0
BBX 16 12 1 0
BITMAP
3E38
7EFE
3DFE
3B87
3F87
3F07
3F07
330E
738E
FBFC
FDF8
F870
ENDCHAR

STARTCHAR afii10097
ENCODING 239
SWIDTH 600 0
DWIDTH 15 0
BBX 16 11 0 0
BITMAP
03FE
0FFF
0FFE
1C18
1C18
0FF8
0BF8
07F8
1E30
FDFC
78FC
ENDCHAR

STARTCHAR afii61352
ENCODING 240
SWIDTH 600 0
DWIDTH 15 0
BBX 16 15 1 0
BITMAP
3DF0
3DF8
3EF6
1E6F
1EEB
3EFB
3AFA
36DE
37CC
77C0
77DC
63BC
FB80
FB80
F900
ENDCHAR

STARTCHAR afii10071
ENCODING 241
SWIDTH 600 0
DWIDTH 15 0
BBX 13 16 2 0
BITMAP
0218
0738
0210
0000
03C0
0FF0
3FF8
3018
7FF8
7FF8
FFF8
6000
7030
7FF8
3FF0
0F80
ENDCHAR

STARTCHAR afii10099
ENCODING 242
SWIDTH 600 0
DWIDTH 15 0
BBX 14 21 1 -5
BITMAP
1F00
1FE0
07E0
0F00
0EE0
0FF8
0FFC
0E1C
1C1C
1C18
1818
1838
3838
7C38
FC30
7C30
0070
0070
1FE0
3FC0
3F00
ENDCHAR

STARTCHAR afii10100
ENCODING 243
SWIDTH 600 0
DWIDTH 15 0
BBX 15 17 1 0
BITMAP
0018
0070
01C0
0080
0000
3FFE
7FFE
3FFE
0C0E
1C0E
1C0C
1C0C
1800
1800
7F00
FF80
FF00
ENDCHAR

STARTCHAR afii10101
ENCODING 244
SWIDTH 600 0
DWIDTH 15 0
BBX 14 12 2 0
BITMAP
03CC
0FFC
3FF8
3018
7F18
7F80
FF00
E000
7038
7FF0
3FE0
0F80
ENDCHAR

STARTCHAR afii10102
ENCODING 245
SWIDTH 600 0
DWIDTH 15 0
BBX 13 12 2 0
BITMAP
03C0
0FF8
1FF8
3870
3E10
1FE0
0FF0
0070
6070
77E0
FFC0
CF00
ENDCHAR

STARTCHAR afii10103
ENCODING 246
SWIDTH 600 0
DWIDTH 15 0
BBX 12 16 2 0
BITMAP
01C0
0380
0380
0000
0000
1F80
1F80
1F80
0300
0300
0700
0700
0600
7FE0
FFF0
FFE0
ENDCHAR

STARTCHAR afii10104
ENCODING 247
SWIDTH 600 0
DWIDTH 15 0
BBX 12 16 2 0
BITMAP
0430
0E70
0420
0000
0FC0
1F80
0D80
0380
0380
0380
0300
0300
0300
7FF0
FFF0
7FE0
ENDCHAR

STARTCHAR afii10105
ENCODING 248
SWIDTH 600 0
DWIDTH 15 0
BBX 13 22 1 -6
BITMAP
0070
0070
0070
0000
0000
0FF8
1FF8
0FF0
0030
0070
0070
0070
0060
0060
00E0
00E0
00C0
00C0
01C0
7F80
FF00
7C00
ENDCHAR

STARTCHAR afii10106
ENCODING 249
SWIDTH 600 0
DWIDTH 15 0
BBX 16 12 0 0
BITMAP
0FFC
0FFC
07FC
0330
0730
077E
067F
0677
6E67
FEFE
FDFE
F8F8
ENDCHAR

STARTCHAR afii10107
ENCODING 250
SWIDTH 600 0
DWIDTH 15 0
BBX 15 11 1 0
BITMAP
3CF8
7DFC
3CF8
38C0
3FF8
3FFC
3FFE
71CE
FBFE
FBFC
F3F0
ENDCHAR

STARTCHAR afii10108
ENCODING 251
SWIDTH 600 0
DWIDTH 15 0
BBX 14 16 1 0
BITMAP
1F00
1FE0
07E0
0F00
0EE0
0FF8
0FFC
0E1C
1C1C
1C18
1818
1818
3838
7C7C
FCFC
7C78
ENDCHAR

STARTCHAR afii10109
ENCODING 252
SWIDTH 600 0
DWIDTH 15 0
BBX 14 17 2 0
BITMAP
0020
0060
01C0
0300
0000
3E3C
7E78
3EF8
19D8
1F80
3F00
3F80
31C0
31C0
F8F0
FCF8
F870
ENDCHAR

STARTCHAR section
ENCODING 253
SWIDTH 600 0
DWIDTH 15 0
BBX 14 18 2 -2
BITMAP
01FC
07FC
060C
0C08
1C00
3F00
6780
61E0
70F0
3C38
1E18
0798
01F0
00C0
40C0
C180
FF80
FE00
ENDCHAR

STARTCHAR afii10110
ENCODING 254
SWIDTH 600 0
DWIDTH 15 0
BBX 16 19 1 -3
BITMAP
0618
0730
03E0
0000
3C3E
7E3F
3C1E
1C38
1C78
0E70
0EE0
07C0
07C0
0780
6700
6E00
FC00
FC00
7000
ENDCHAR

STARTCHAR afii10193
ENCODING 255
SWIDTH 600 0
DWIDTH 15 0
BBX 16 15 1 -3
BITMAP
3E3F
7F7F
3E3E
181C
3818
3818
3838
3038
3030
7FFC
FFF8
FFF8
0700
0600
0600
ENDCHAR
ENDFONT
